<mxfile host="app.diagrams.net" modified="2023-11-21T14:40:17.040Z" agent="Mozilla/5.0 (Windows NT 10.0; Win64; x64) AppleWebKit/537.36 (KHTML, like Gecko) Chrome/119.0.0.0 Safari/537.36" version="22.1.3" etag="J70PA_f86k_4BflEZoOO" type="device">
  <diagram id="C5RBs43oDa-KdzZeNtuy" name="Page-1">
    <mxGraphModel dx="1430" dy="793" grid="1" gridSize="10" guides="1" tooltips="1" connect="1" arrows="1" fold="1" page="1" pageScale="1" pageWidth="827" pageHeight="1169" math="0" shadow="0">
      <root>
        <mxCell id="WIyWlLk6GJQsqaUBKTNV-0" />
        <mxCell id="WIyWlLk6GJQsqaUBKTNV-1" parent="WIyWlLk6GJQsqaUBKTNV-0" />
        <mxCell id="gpb4pFtpc3qNbLRyGu-3-4" value="Weapon" style="swimlane;fontStyle=1;align=center;verticalAlign=top;childLayout=stackLayout;horizontal=1;startSize=26;horizontalStack=0;resizeParent=1;resizeParentMax=0;resizeLast=0;collapsible=1;marginBottom=0;whiteSpace=wrap;html=1;" vertex="1" parent="WIyWlLk6GJQsqaUBKTNV-1">
          <mxGeometry x="560" y="204" width="240" height="230" as="geometry" />
        </mxCell>
        <mxCell id="gpb4pFtpc3qNbLRyGu-3-5" value="-name:string&lt;br&gt;-attackBonus:int" style="text;strokeColor=none;fillColor=none;align=left;verticalAlign=top;spacingLeft=4;spacingRight=4;overflow=hidden;rotatable=0;points=[[0,0.5],[1,0.5]];portConstraint=eastwest;whiteSpace=wrap;html=1;" vertex="1" parent="gpb4pFtpc3qNbLRyGu-3-4">
          <mxGeometry y="26" width="240" height="84" as="geometry" />
        </mxCell>
        <mxCell id="gpb4pFtpc3qNbLRyGu-3-6" value="" style="line;strokeWidth=1;fillColor=none;align=left;verticalAlign=middle;spacingTop=-1;spacingLeft=3;spacingRight=3;rotatable=0;labelPosition=right;points=[];portConstraint=eastwest;strokeColor=inherit;" vertex="1" parent="gpb4pFtpc3qNbLRyGu-3-4">
          <mxGeometry y="110" width="240" height="8" as="geometry" />
        </mxCell>
        <mxCell id="gpb4pFtpc3qNbLRyGu-3-7" value="+Weapon(string,int)&lt;br&gt;" style="text;strokeColor=none;fillColor=none;align=left;verticalAlign=top;spacingLeft=4;spacingRight=4;overflow=hidden;rotatable=0;points=[[0,0.5],[1,0.5]];portConstraint=eastwest;whiteSpace=wrap;html=1;" vertex="1" parent="gpb4pFtpc3qNbLRyGu-3-4">
          <mxGeometry y="118" width="240" height="112" as="geometry" />
        </mxCell>
        <mxCell id="gpb4pFtpc3qNbLRyGu-3-8" value="WarroirBuilder" style="swimlane;fontStyle=1;align=center;verticalAlign=top;childLayout=stackLayout;horizontal=1;startSize=26;horizontalStack=0;resizeParent=1;resizeParentMax=0;resizeLast=0;collapsible=1;marginBottom=0;whiteSpace=wrap;html=1;" vertex="1" parent="WIyWlLk6GJQsqaUBKTNV-1">
          <mxGeometry x="500" y="610" width="270" height="98" as="geometry" />
        </mxCell>
        <mxCell id="gpb4pFtpc3qNbLRyGu-3-9" value="+addSpells():void&lt;br style=&quot;border-color: var(--border-color);&quot;&gt;+addWepon():void&lt;br style=&quot;border-color: var(--border-color);&quot;&gt;+createHero(name:string)" style="text;strokeColor=none;fillColor=none;align=left;verticalAlign=top;spacingLeft=4;spacingRight=4;overflow=hidden;rotatable=0;points=[[0,0.5],[1,0.5]];portConstraint=eastwest;whiteSpace=wrap;html=1;" vertex="1" parent="gpb4pFtpc3qNbLRyGu-3-8">
          <mxGeometry y="26" width="270" height="64" as="geometry" />
        </mxCell>
        <mxCell id="gpb4pFtpc3qNbLRyGu-3-10" value="" style="line;strokeWidth=1;fillColor=none;align=left;verticalAlign=middle;spacingTop=-1;spacingLeft=3;spacingRight=3;rotatable=0;labelPosition=right;points=[];portConstraint=eastwest;strokeColor=inherit;" vertex="1" parent="gpb4pFtpc3qNbLRyGu-3-8">
          <mxGeometry y="90" width="270" height="8" as="geometry" />
        </mxCell>
        <mxCell id="gpb4pFtpc3qNbLRyGu-3-12" value="Spell" style="swimlane;fontStyle=1;align=center;verticalAlign=top;childLayout=stackLayout;horizontal=1;startSize=26;horizontalStack=0;resizeParent=1;resizeParentMax=0;resizeLast=0;collapsible=1;marginBottom=0;whiteSpace=wrap;html=1;" vertex="1" parent="WIyWlLk6GJQsqaUBKTNV-1">
          <mxGeometry x="50" y="366" width="240" height="124" as="geometry" />
        </mxCell>
        <mxCell id="gpb4pFtpc3qNbLRyGu-3-13" value="-name:string&lt;br&gt;_magicBonus:int" style="text;strokeColor=none;fillColor=none;align=left;verticalAlign=top;spacingLeft=4;spacingRight=4;overflow=hidden;rotatable=0;points=[[0,0.5],[1,0.5]];portConstraint=eastwest;whiteSpace=wrap;html=1;" vertex="1" parent="gpb4pFtpc3qNbLRyGu-3-12">
          <mxGeometry y="26" width="240" height="64" as="geometry" />
        </mxCell>
        <mxCell id="gpb4pFtpc3qNbLRyGu-3-14" value="" style="line;strokeWidth=1;fillColor=none;align=left;verticalAlign=middle;spacingTop=-1;spacingLeft=3;spacingRight=3;rotatable=0;labelPosition=right;points=[];portConstraint=eastwest;strokeColor=inherit;" vertex="1" parent="gpb4pFtpc3qNbLRyGu-3-12">
          <mxGeometry y="90" width="240" height="8" as="geometry" />
        </mxCell>
        <mxCell id="gpb4pFtpc3qNbLRyGu-3-15" value="SpelL(string,int)" style="text;strokeColor=none;fillColor=none;align=left;verticalAlign=top;spacingLeft=4;spacingRight=4;overflow=hidden;rotatable=0;points=[[0,0.5],[1,0.5]];portConstraint=eastwest;whiteSpace=wrap;html=1;" vertex="1" parent="gpb4pFtpc3qNbLRyGu-3-12">
          <mxGeometry y="98" width="240" height="26" as="geometry" />
        </mxCell>
        <mxCell id="gpb4pFtpc3qNbLRyGu-3-16" value="Hero" style="swimlane;fontStyle=1;align=center;verticalAlign=top;childLayout=stackLayout;horizontal=1;startSize=26;horizontalStack=0;resizeParent=1;resizeParentMax=0;resizeLast=0;collapsible=1;marginBottom=0;whiteSpace=wrap;html=1;" vertex="1" parent="WIyWlLk6GJQsqaUBKTNV-1">
          <mxGeometry x="130" y="60" width="360" height="230" as="geometry" />
        </mxCell>
        <mxCell id="gpb4pFtpc3qNbLRyGu-3-17" value="-nane:string&lt;br&gt;-strength:int&lt;br&gt;-role:string&lt;br&gt;-weapons:vector&amp;lt;Weapon*&amp;gt;&lt;br&gt;-spells:vector&amp;lt;Spole*&amp;gt;" style="text;strokeColor=none;fillColor=none;align=left;verticalAlign=top;spacingLeft=4;spacingRight=4;overflow=hidden;rotatable=0;points=[[0,0.5],[1,0.5]];portConstraint=eastwest;whiteSpace=wrap;html=1;" vertex="1" parent="gpb4pFtpc3qNbLRyGu-3-16">
          <mxGeometry y="26" width="360" height="104" as="geometry" />
        </mxCell>
        <mxCell id="gpb4pFtpc3qNbLRyGu-3-18" value="" style="line;strokeWidth=1;fillColor=none;align=left;verticalAlign=middle;spacingTop=-1;spacingLeft=3;spacingRight=3;rotatable=0;labelPosition=right;points=[];portConstraint=eastwest;strokeColor=inherit;" vertex="1" parent="gpb4pFtpc3qNbLRyGu-3-16">
          <mxGeometry y="130" width="360" height="8" as="geometry" />
        </mxCell>
        <mxCell id="gpb4pFtpc3qNbLRyGu-3-19" value="+Hero(string,string,int)&lt;br&gt;+Hero(string,int,string,vector&amp;lt;Spole*&amp;gt;,vector&amp;lt;Weapon*&amp;gt;)&lt;br&gt;+addSpell(spell:Spel):void&lt;br&gt;+addWeapon(weapon:Weapon):void&lt;br&gt;+print():void" style="text;strokeColor=none;fillColor=none;align=left;verticalAlign=top;spacingLeft=4;spacingRight=4;overflow=hidden;rotatable=0;points=[[0,0.5],[1,0.5]];portConstraint=eastwest;whiteSpace=wrap;html=1;" vertex="1" parent="gpb4pFtpc3qNbLRyGu-3-16">
          <mxGeometry y="138" width="360" height="92" as="geometry" />
        </mxCell>
        <mxCell id="gpb4pFtpc3qNbLRyGu-3-22" value="0..1" style="endArrow=open;html=1;endSize=12;startArrow=diamondThin;startSize=14;startFill=0;edgeStyle=orthogonalEdgeStyle;align=left;verticalAlign=bottom;rounded=0;exitX=0.521;exitY=1.02;exitDx=0;exitDy=0;exitPerimeter=0;entryX=0.5;entryY=0;entryDx=0;entryDy=0;" edge="1" parent="WIyWlLk6GJQsqaUBKTNV-1" source="gpb4pFtpc3qNbLRyGu-3-19" target="gpb4pFtpc3qNbLRyGu-3-12">
          <mxGeometry x="-0.8581" y="8" relative="1" as="geometry">
            <mxPoint x="360" y="380" as="sourcePoint" />
            <mxPoint x="520" y="380" as="targetPoint" />
            <Array as="points">
              <mxPoint x="310" y="292" />
              <mxPoint x="310" y="350" />
              <mxPoint x="170" y="350" />
            </Array>
            <mxPoint as="offset" />
          </mxGeometry>
        </mxCell>
        <mxCell id="gpb4pFtpc3qNbLRyGu-3-23" value="1" style="endArrow=open;html=1;endSize=12;startArrow=diamondThin;startSize=14;startFill=0;edgeStyle=orthogonalEdgeStyle;align=left;verticalAlign=bottom;rounded=0;entryX=-0.013;entryY=0.346;entryDx=0;entryDy=0;entryPerimeter=0;" edge="1" parent="WIyWlLk6GJQsqaUBKTNV-1" target="gpb4pFtpc3qNbLRyGu-3-7">
          <mxGeometry x="-1" relative="1" as="geometry">
            <mxPoint x="310" y="300" as="sourcePoint" />
            <mxPoint x="520" y="380" as="targetPoint" />
            <Array as="points">
              <mxPoint x="310" y="360" />
              <mxPoint x="520" y="360" />
            </Array>
            <mxPoint as="offset" />
          </mxGeometry>
        </mxCell>
        <mxCell id="gpb4pFtpc3qNbLRyGu-3-24" value="MageBuilder" style="swimlane;fontStyle=1;align=center;verticalAlign=top;childLayout=stackLayout;horizontal=1;startSize=26;horizontalStack=0;resizeParent=1;resizeParentMax=0;resizeLast=0;collapsible=1;marginBottom=0;whiteSpace=wrap;html=1;" vertex="1" parent="WIyWlLk6GJQsqaUBKTNV-1">
          <mxGeometry x="240" y="620" width="160" height="98" as="geometry" />
        </mxCell>
        <mxCell id="gpb4pFtpc3qNbLRyGu-3-25" value="+addSpells():void&lt;br&gt;+addWepon():void&lt;br&gt;+createHero(name:string)" style="text;strokeColor=none;fillColor=none;align=left;verticalAlign=top;spacingLeft=4;spacingRight=4;overflow=hidden;rotatable=0;points=[[0,0.5],[1,0.5]];portConstraint=eastwest;whiteSpace=wrap;html=1;" vertex="1" parent="gpb4pFtpc3qNbLRyGu-3-24">
          <mxGeometry y="26" width="160" height="64" as="geometry" />
        </mxCell>
        <mxCell id="gpb4pFtpc3qNbLRyGu-3-26" value="" style="line;strokeWidth=1;fillColor=none;align=left;verticalAlign=middle;spacingTop=-1;spacingLeft=3;spacingRight=3;rotatable=0;labelPosition=right;points=[];portConstraint=eastwest;strokeColor=inherit;" vertex="1" parent="gpb4pFtpc3qNbLRyGu-3-24">
          <mxGeometry y="90" width="160" height="8" as="geometry" />
        </mxCell>
        <mxCell id="gpb4pFtpc3qNbLRyGu-3-28" value="carries" style="text;html=1;align=center;verticalAlign=middle;resizable=0;points=[];autosize=1;strokeColor=none;fillColor=none;" vertex="1" parent="WIyWlLk6GJQsqaUBKTNV-1">
          <mxGeometry x="354" y="336" width="60" height="30" as="geometry" />
        </mxCell>
        <mxCell id="gpb4pFtpc3qNbLRyGu-3-29" value="Carries" style="text;html=1;align=center;verticalAlign=middle;resizable=0;points=[];autosize=1;strokeColor=none;fillColor=none;" vertex="1" parent="WIyWlLk6GJQsqaUBKTNV-1">
          <mxGeometry x="190" y="330" width="60" height="30" as="geometry" />
        </mxCell>
        <mxCell id="gpb4pFtpc3qNbLRyGu-3-30" value="HeroBuilder" style="swimlane;fontStyle=1;align=center;verticalAlign=top;childLayout=stackLayout;horizontal=1;startSize=26;horizontalStack=0;resizeParent=1;resizeParentMax=0;resizeLast=0;collapsible=1;marginBottom=0;whiteSpace=wrap;html=1;" vertex="1" parent="WIyWlLk6GJQsqaUBKTNV-1">
          <mxGeometry x="340" y="410" width="196" height="130" as="geometry" />
        </mxCell>
        <mxCell id="gpb4pFtpc3qNbLRyGu-3-31" value="#hero:Hero*" style="text;strokeColor=none;fillColor=none;align=left;verticalAlign=top;spacingLeft=4;spacingRight=4;overflow=hidden;rotatable=0;points=[[0,0.5],[1,0.5]];portConstraint=eastwest;whiteSpace=wrap;html=1;" vertex="1" parent="gpb4pFtpc3qNbLRyGu-3-30">
          <mxGeometry y="26" width="196" height="34" as="geometry" />
        </mxCell>
        <mxCell id="gpb4pFtpc3qNbLRyGu-3-32" value="" style="line;strokeWidth=1;fillColor=none;align=left;verticalAlign=middle;spacingTop=-1;spacingLeft=3;spacingRight=3;rotatable=0;labelPosition=right;points=[];portConstraint=eastwest;strokeColor=inherit;" vertex="1" parent="gpb4pFtpc3qNbLRyGu-3-30">
          <mxGeometry y="60" width="196" height="8" as="geometry" />
        </mxCell>
        <mxCell id="gpb4pFtpc3qNbLRyGu-3-33" value="+&lt;i style=&quot;border-color: var(--border-color);&quot;&gt;addSpells():void&lt;br style=&quot;border-color: var(--border-color);&quot;&gt;+addWepon():void&lt;br style=&quot;border-color: var(--border-color);&quot;&gt;+createHeroBuilder(name:string)&lt;/i&gt;" style="text;strokeColor=none;fillColor=none;align=left;verticalAlign=top;spacingLeft=4;spacingRight=4;overflow=hidden;rotatable=0;points=[[0,0.5],[1,0.5]];portConstraint=eastwest;whiteSpace=wrap;html=1;" vertex="1" parent="gpb4pFtpc3qNbLRyGu-3-30">
          <mxGeometry y="68" width="196" height="62" as="geometry" />
        </mxCell>
        <mxCell id="gpb4pFtpc3qNbLRyGu-3-34" value="virtual" style="text;html=1;align=center;verticalAlign=middle;resizable=0;points=[];autosize=1;strokeColor=none;fillColor=none;" vertex="1" parent="WIyWlLk6GJQsqaUBKTNV-1">
          <mxGeometry x="130" y="540" width="196" height="30" as="geometry" />
        </mxCell>
        <mxCell id="gpb4pFtpc3qNbLRyGu-3-37" value="" style="endArrow=classic;html=1;rounded=0;exitX=0.571;exitY=0.008;exitDx=0;exitDy=0;exitPerimeter=0;entryX=0.385;entryY=0.991;entryDx=0;entryDy=0;entryPerimeter=0;" edge="1" parent="WIyWlLk6GJQsqaUBKTNV-1">
          <mxGeometry width="50" height="50" relative="1" as="geometry">
            <mxPoint x="339.9999999999999" y="621.344" as="sourcePoint" />
            <mxPoint x="424.1" y="540.002" as="targetPoint" />
            <Array as="points">
              <mxPoint x="388.64" y="596" />
              <mxPoint x="418.64" y="576" />
            </Array>
          </mxGeometry>
        </mxCell>
        <mxCell id="gpb4pFtpc3qNbLRyGu-3-38" value="" style="endArrow=classic;html=1;rounded=0;entryX=0.494;entryY=1.046;entryDx=0;entryDy=0;entryPerimeter=0;exitX=0.287;exitY=0.005;exitDx=0;exitDy=0;exitPerimeter=0;" edge="1" parent="WIyWlLk6GJQsqaUBKTNV-1">
          <mxGeometry width="50" height="50" relative="1" as="geometry">
            <mxPoint x="560" y="610" as="sourcePoint" />
            <mxPoint x="419.33400000000006" y="542.3620000000001" as="targetPoint" />
          </mxGeometry>
        </mxCell>
        <mxCell id="gpb4pFtpc3qNbLRyGu-3-39" value="1" style="endArrow=open;html=1;endSize=12;startArrow=diamondThin;startSize=14;startFill=0;edgeStyle=orthogonalEdgeStyle;align=left;verticalAlign=bottom;rounded=0;exitX=0.361;exitY=-0.012;exitDx=0;exitDy=0;exitPerimeter=0;entryX=0.674;entryY=1.027;entryDx=0;entryDy=0;entryPerimeter=0;" edge="1" parent="WIyWlLk6GJQsqaUBKTNV-1">
          <mxGeometry x="-0.8929" y="-11" relative="1" as="geometry">
            <mxPoint x="469.16600000000005" y="410.00000000000006" as="sourcePoint" />
            <mxPoint x="400.0200000000001" y="292.48400000000015" as="targetPoint" />
            <Array as="points">
              <mxPoint x="469.38" y="352" />
              <mxPoint x="417.38" y="352" />
              <mxPoint x="417.38" y="320" />
              <mxPoint x="400.38" y="320" />
            </Array>
            <mxPoint as="offset" />
          </mxGeometry>
        </mxCell>
        <mxCell id="gpb4pFtpc3qNbLRyGu-3-40" value="0..1" style="text;html=1;align=center;verticalAlign=middle;resizable=0;points=[];autosize=1;strokeColor=none;fillColor=none;" vertex="1" parent="WIyWlLk6GJQsqaUBKTNV-1">
          <mxGeometry x="400" y="290" width="40" height="30" as="geometry" />
        </mxCell>
        <mxCell id="gpb4pFtpc3qNbLRyGu-3-41" value="builds" style="text;html=1;align=center;verticalAlign=middle;resizable=0;points=[];autosize=1;strokeColor=none;fillColor=none;" vertex="1" parent="WIyWlLk6GJQsqaUBKTNV-1">
          <mxGeometry x="414" y="330" width="50" height="30" as="geometry" />
        </mxCell>
      </root>
    </mxGraphModel>
  </diagram>
</mxfile>
